<?xml version="1.0" encoding="iso-8859-1"?>
<!-- Generator: Adobe Illustrator 19.0.0, SVG Export Plug-In . SVG Version: 6.00 Build 0)  -->
<svg version="1.1" id="Layer_1" width="200" height="200" xmlns="http://www.w3.org/2000/svg" xmlns:xlink="http://www.w3.org/1999/xlink" x="0px" y="0px"
	 viewBox="0 0 512 512" style="enable-background:new 0 0 512 512;" xml:space="preserve">
<path style="fill:#FC583D;" d="M292.961,237.984L270.89,364.233c-6.212-3.12-12.983-5.409-20.185-6.669
	c-39.706-6.942-77.535,19.628-84.476,59.334c-6.943,39.719,19.628,77.535,59.334,84.476c39.719,6.943,77.533-19.616,84.476-59.334
	l12.504-71.527L292.961,237.984z M230.884,470.945c-22.905-4.005-38.226-25.818-34.223-48.723
	c4.005-22.905,25.818-38.226,48.723-34.223c22.905,4.005,38.226,25.818,34.223,48.723
	C275.602,459.629,253.789,474.95,230.884,470.945z"/>
<path style="fill:#CCCCCC;" d="M280.305,310.378l48.078-275.01l0,0c27.498,34.638,38.874,79.382,31.258,122.948l-24.441,139.804"/>
<g>
	<path style="fill:#49DB95;" d="M125.404,194.831H49.845c-4.796,0-8.684-3.888-8.684-8.684c0-4.796,3.888-8.684,8.684-8.684h75.559
		c4.796,0,8.684,3.888,8.684,8.684C134.087,190.943,130.201,194.831,125.404,194.831z"/>
	<path style="fill:#49DB95;" d="M132.293,291.589H62.106c-4.796,0-8.684-3.888-8.684-8.684c0-4.796,3.888-8.684,8.684-8.684h70.187
		c4.796,0,8.684,3.888,8.684,8.684C140.976,287.702,137.088,291.589,132.293,291.589z"/>
	<path style="fill:#49DB95;" d="M127.372,259.333H55.947c-4.796,0-8.684-3.888-8.684-8.684c0-4.796,3.888-8.684,8.684-8.684h71.425
		c4.796,0,8.684,3.888,8.684,8.684C136.056,255.445,132.168,259.333,127.372,259.333z"/>
	<path style="fill:#49DB95;" d="M125.404,227.088H51.871c-4.796,0-8.684-3.888-8.684-8.684c0-4.796,3.888-8.684,8.684-8.684h73.533
		c4.796,0,8.684,3.888,8.684,8.684C134.087,223.2,130.201,227.088,125.404,227.088z"/>
	<path style="fill:#49DB95;" d="M126.052,162.575H49.845c-4.796,0-8.684-3.888-8.684-8.684c0-4.796,3.888-8.684,8.684-8.684h76.207
		c4.796,0,8.684,3.888,8.684,8.684C134.736,158.688,130.849,162.575,126.052,162.575z"/>
	<path style="fill:#49DB95;" d="M127.372,130.329H51.871c-4.796,0-8.684-3.888-8.684-8.684c0-4.796,3.888-8.684,8.684-8.684h75.501
		c4.796,0,8.684,3.888,8.684,8.684C136.056,126.441,132.168,130.329,127.372,130.329z"/>
	<path style="fill:#49DB95;" d="M129.421,98.074H55.947c-4.796,0-8.684-3.888-8.684-8.684c0-4.796,3.888-8.684,8.684-8.684h73.475
		c4.796,0,8.684,3.888,8.684,8.684C138.105,94.186,134.217,98.074,129.421,98.074z"/>
	<path style="fill:#49DB95;" d="M132.293,65.816H62.106c-4.796,0-8.684-3.888-8.684-8.684s3.888-8.684,8.684-8.684h70.187
		c4.796,0,8.684,3.888,8.684,8.684S137.088,65.816,132.293,65.816z"/>
	<path style="fill:#49DB95;" d="M156.973,321.038c-1.358-7.556-7.933-13.054-15.61-13.054H97.218
		c-16.004,0-29.744-9.256-32.678-22.023c-17.611-76.633-17.611-155.252,0-231.886c2.934-12.767,16.674-22.023,32.678-22.023h44.145
		c7.677,0,14.258-5.5,15.611-13.057c0.02-0.11,0.039-0.22,0.059-0.331C158.785,8.941,151.304,0,141.421,0H58.689
		C42.484,0,28.366,10.905,24.122,26.545c-26.967,99.346-3.521,379.131,4.243,462.028C29.609,501.853,40.753,512,54.091,512l0,0
		c13.543,0,24.789-10.457,25.771-23.964l9.185-126.299c0.889-12.23,11.071-21.699,23.333-21.699h29.053
		c9.877,0,17.349-8.935,15.602-18.656L156.973,321.038z"/>
</g>
<path style="fill:#E6E6E6;" d="M485.584,348.728c-22.271-29.354-63.572-37.454-95.264-18.659
	c-8.072,4.788-14.826,10.843-20.237,17.721l-191.89-273.2l-0.002,0.012c-10.153,43.041-1.421,88.369,23.997,124.556l164.871,234.734
	c23.329,33.214,69.392,42.051,102.542,18.628C503.192,428.784,510.685,381.81,485.584,348.728z M451.673,427.358
	c-19.027,13.365-45.287,8.774-58.651-10.254c-13.365-19.027-8.774-45.287,10.254-58.651c19.027-13.365,45.287-8.774,58.651,10.254
	C475.291,387.734,470.701,413.993,451.673,427.358z"/>
<path style="fill:#FC583D;" d="M485.606,348.695c-22.26-29.363-63.572-37.465-95.257-18.663
	c-8.07,4.781-14.833,10.846-20.243,17.725l-24.749-35.237l-31.993,44.848l53.723,76.487c23.332,33.218,69.39,42.048,102.535,18.629
	C503.225,428.742,510.709,381.77,485.606,348.695z M451.701,427.32c-19.029,13.366-45.292,8.774-58.658-10.255
	c-13.366-19.029-8.776-45.281,10.252-58.646c19.029-13.366,45.292-8.774,58.658,10.255S470.731,413.955,451.701,427.32z"/>
<path style="fill:#666666;" d="M306.832,309.999c-7.671,0-11.531-9.689-5.984-14.976c2.686-2.561,6.807-3.099,10.076-1.366
	c3.275,1.737,5.092,5.496,4.455,9.14C314.662,306.902,311.014,309.999,306.832,309.999z"/>
<g>
</g>
<g>
</g>
<g>
</g>
<g>
</g>
<g>
</g>
<g>
</g>
<g>
</g>
<g>
</g>
<g>
</g>
<g>
</g>
<g>
</g>
<g>
</g>
<g>
</g>
<g>
</g>
<g>
</g>
</svg>
