<?xml version="1.0" encoding="iso-8859-1"?>
<!-- Generator: Adobe Illustrator 19.0.0, SVG Export Plug-In . SVG Version: 6.00 Build 0)  -->
<svg version="1.1" id="Layer_1" width="200" height="200" xmlns="http://www.w3.org/2000/svg" xmlns:xlink="http://www.w3.org/1999/xlink" x="0px" y="0px"
	 viewBox="0 0 512.01 512.01" style="enable-background:new 0 0 512.01 512.01;" xml:space="preserve">
<path style="fill:#5D9EBA;" d="M382.919,407.979v104.018H133.13V407.979c0-16.179,5.42-31.098,14.552-43.026
	c12.948-16.924,33.355-27.843,56.317-27.843h108.062C351.191,337.11,382.919,368.838,382.919,407.979z"/>
<rect x="202.597" y="323.236" style="fill:#71C5F4;" width="110.858" height="103.949"/>
<path style="fill:#508DA3;" d="M202.601,337.133v16.133c-15.755,13.005-25.804,32.69-25.804,54.713v104.018H133.13V407.979
	C133.13,369.307,164.101,337.866,202.601,337.133z"/>
<path style="fill:#E0B394;" d="M307.886,275.176v63.657c0,27.535-22.326,49.862-49.862,49.862
	c-27.544,0-49.862-22.326-49.862-49.862v-63.657H307.886z"/>
<path style="fill:#5D9EBA;" d="M258.024,394.424c-30.653,0-55.591-24.938-55.591-55.591v-63.657c0-3.164,2.565-5.729,5.729-5.729
	h99.724c3.165,0,5.729,2.565,5.729,5.729v63.657C313.616,369.486,288.677,394.424,258.024,394.424z M213.892,280.906v57.928
	c0,24.335,19.798,44.132,44.132,44.132s44.134-19.798,44.134-44.132v-57.928H213.892L213.892,280.906z"/>
<path style="fill:#6ABFE5;" d="M181.644,423.688v88.308H133.13V407.979c0-16.179,5.42-31.098,14.552-43.026
	C168.891,378.233,181.644,400.176,181.644,423.688z"/>
<path style="fill:#71C5F4;" d="M334.405,423.688v88.308h48.514V407.979c0-16.179-5.42-31.098-14.552-43.026
	C347.158,378.233,334.405,400.176,334.405,423.688z"/>
<rect x="213.334" y="477.028" style="fill:#CCCCCC;" width="89.374" height="34.97"/>
<rect x="431.108" y="348.742" style="fill:#F9C573;" width="37.81" height="163.268"/>
<rect x="431.108" y="348.742" style="fill:#E2AF66;" width="9.224" height="163.268"/>
<polygon style="fill:#E6E6E6;" points="13.842,380.354 13.589,136.992 58.729,136.942 71.942,157.786 68.693,181.286 
	81.907,202.122 78.658,225.621 91.872,246.456 88.613,269.966 101.817,290.8 98.578,314.3 111.791,335.136 108.544,358.635 
	121.766,379.47 118.589,402.487 "/>
<path style="fill:#EA8249;" d="M138.804,420.645L93.952,380.36c-6.01-5.398-14.057-7.942-22.078-6.978l-63.333,7.605l0.118,115.515
	c0.006,5.019,5.361,8.218,9.782,5.844l5.167-2.774c6.452-3.465,14.233-3.366,20.596,0.26l0,0
	c21.804,12.43,47.715,15.488,71.814,8.476l11.302-3.289c7.886-2.294,13.241-9.608,13.049-17.819L138.804,420.645z M99.57,465.259
	H52.814c-7.913,0-14.328-6.415-14.328-14.328c0-7.913,6.415-14.329,14.328-14.329H99.57c7.913,0,14.328,6.415,14.328,14.329
	C113.898,458.843,107.484,465.259,99.57,465.259z"/>
<g>
	<path style="fill:#E0B394;" d="M138.376,240.262c-14.208-0.63-25.517-12.352-25.517-26.709c0-14.758,11.962-26.732,26.732-26.732
		c1.329,0,2.635,0.092,3.919,0.286L138.376,240.262z"/>
	<path style="fill:#E0B394;" d="M377.647,240.262c14.208-0.63,25.529-12.352,25.529-26.709c0-14.758-11.974-26.732-26.743-26.732
		c-1.329,0-2.647,0.103-3.919,0.286L377.647,240.262z"/>
</g>
<path style="fill:#F7CBA4;" d="M219.346,355.812l-47.035-34.173c-24.855-18.058-38.301-47.921-35.346-78.501l8.158-84.422
	c5.619-58.145,54.48-102.512,112.896-102.512l0,0c58.415,0,107.276,44.367,112.895,102.512l8.158,84.422
	c2.955,30.581-10.49,60.442-35.346,78.501l-47.035,34.173C273.63,372.566,242.405,372.566,219.346,355.812z"/>
<path style="fill:#E8BA97;" d="M166.235,259.775c-0.791,13.372,3.564,26.526,12.18,36.781l49.159,60.408
	c2.567,3.059,5.477,5.626,8.628,7.677c-5.912-2.062-11.596-5.019-16.855-8.834l-47.036-34.168
	c-24.853-18.058-38.293-47.918-35.337-78.5l8.147-84.424c5.569-57.578,53.533-101.646,111.202-102.482
	c-35.52,0.859-75.742,34.34-77.839,69.998L166.235,259.775z"/>
<path style="fill:#EA8249;" d="M374.664,128.331h-3.782c0-31.166-12.627-59.376-33.057-79.806
	c-15.148-15.148-34.581-26.01-56.317-30.605h-0.003V7.67c0-4.236-3.434-7.67-7.67-7.67h-31.637c-4.236,0-7.67,3.434-7.67,7.67V17.92
	c-51.057,10.806-89.371,56.134-89.371,110.41h-3.789c-3.655,0-6.803,2.579-7.521,6.163l-3.816,19.033
	c-0.952,4.747,2.679,9.178,7.521,9.178h68.395l9.882,28.646h84.377l9.882-28.646h68.394c4.842,0,8.472-4.431,7.521-9.178
	l-3.816-19.033C381.467,130.909,378.319,128.331,374.664,128.331z"/>
<g>
	<path style="fill:#D36F3D;" d="M182.01,128.331c0-54.276,25.803-99.604,60.187-110.41V0l0,0c-4.236,0-7.67,3.434-7.67,7.67V17.92
		c-51.057,10.806-89.371,56.134-89.371,110.41h-3.789c-3.655,0-6.803,2.579-7.521,6.163l-3.816,19.033
		c-0.951,4.747,2.679,9.178,7.521,9.178h59.755l4.641-34.375H182.01V128.331z"/>
	<path style="fill:#D36F3D;" d="M99.57,470.415H52.815c-10.744,0-19.485-8.74-19.485-19.485s8.74-19.485,19.485-19.485h46.755
		c10.744,0,19.485,8.74,19.485,19.485S110.314,470.415,99.57,470.415z M52.815,441.758c-5.058,0-9.172,4.115-9.172,9.172
		c0,5.058,4.115,9.172,9.172,9.172h46.755c5.058,0,9.172-4.115,9.172-9.172c0-5.058-4.115-9.172-9.172-9.172H52.815z"/>
</g>
<g>
	<path style="fill:#808080;" d="M497.773,298.889h-95.528c-3.145,0-5.696,2.549-5.696,5.696v47.825c0,3.145,2.549,5.696,5.696,5.696
		h95.528c3.145,0,5.696-2.549,5.696-5.696v-47.825C503.469,301.438,500.92,298.889,497.773,298.889z"/>
	<path style="fill:#808080;" d="M478.659,215.624c-1.237,0-2.488-0.363-3.582-1.122l-26.848-18.589
		c-2.861-1.981-3.575-5.907-1.594-8.769c1.981-2.861,5.906-3.576,8.768-1.594l26.848,18.589c2.861,1.981,3.575,5.907,1.594,8.769
		C482.622,214.675,480.657,215.624,478.659,215.624z"/>
	<polygon style="fill:#808080;" points="466.175,209.712 431.644,248.514 455.813,202.537 458.767,196.916 470.396,204.969 	"/>
	<path style="fill:#808080;" d="M444.714,111.891c-0.747,0.987-1.792,1.763-3.057,2.178l-31.03,10.171
		c-3.307,1.084-6.867-0.718-7.951-4.025c-1.084-3.307,0.717-6.867,4.025-7.951l31.03-10.171c3.307-1.084,6.867,0.718,7.951,4.025
		C446.351,108.16,445.92,110.298,444.714,111.891z"/>
	<polygon style="fill:#808080;" points="432.463,118.269 442.535,169.228 420.486,122.196 417.791,116.448 431.231,112.042 	"/>
</g>
<path style="fill:#F2F2F2;" d="M302.874,281.924c0,0-0.653,1.604-2.028,4.136c-0.332,0.653-0.722,1.341-1.157,2.085
	c-0.516,0.733-1.111,1.478-1.753,2.315c-0.642,0.836-1.375,1.684-2.154,2.624c-0.275,0.355-0.573,0.653-0.894,0.962
	c-0.115,0.115-0.241,0.229-0.367,0.344c-0.447,0.412-0.905,0.848-1.375,1.283c-0.94,0.882-1.959,1.753-3.025,2.67
	c-1.123,0.825-2.326,1.604-3.564,2.452c-0.619,0.424-1.26,0.836-1.914,1.249c-0.653,0.39-1.352,0.71-2.063,1.066
	c-1.398,0.71-2.853,1.398-4.354,2.085c-3.094,1.054-6.313,2.292-9.751,2.807c-3.392,0.791-6.932,0.917-10.461,1.089
	c-3.529-0.172-7.07-0.286-10.461-1.077c-3.437-0.516-6.657-1.753-9.751-2.807c-1.501-0.676-2.956-1.364-4.366-2.074
	c-0.699-0.355-1.398-0.676-2.062-1.066c-0.642-0.424-1.283-0.825-1.902-1.249c-1.237-0.848-2.452-1.639-3.575-2.452
	c-1.066-0.917-2.074-1.799-3.025-2.67c-0.47-0.447-0.917-0.871-1.364-1.295c-0.16-0.149-0.321-0.298-0.481-0.447
	c-0.275-0.275-0.539-0.539-0.768-0.848c-0.745-0.905-1.467-1.742-2.097-2.567c-0.619-0.836-1.226-1.57-1.73-2.303
	c-0.458-0.779-0.882-1.49-1.237-2.143c-1.432-2.612-2.028-4.171-2.028-4.171s1.696,0.516,4.308,1.57
	c0.665,0.252,1.352,0.561,2.12,0.871c0.814,0.241,1.65,0.55,2.544,0.848c0.905,0.298,1.81,0.665,2.773,1.008
	c0.951,0.367,2.028,0.607,3.094,0.928c1.066,0.309,2.131,0.688,3.243,1.02c1.157,0.252,2.315,0.55,3.506,0.836
	c0.596,0.137,1.18,0.309,1.776,0.47c0.607,0.137,1.237,0.218,1.856,0.344c1.249,0.218,2.498,0.47,3.747,0.756
	c2.601,0.241,5.168,0.814,7.849,0.917c2.647,0.344,5.351,0.252,8.032,0.412c2.693-0.16,5.397-0.057,8.044-0.401
	c2.681-0.092,5.248-0.676,7.849-0.917c1.249-0.275,2.498-0.527,3.747-0.745c0.619-0.126,1.249-0.206,1.856-0.344
	c0.596-0.172,1.192-0.332,1.776-0.47c1.192-0.286,2.349-0.596,3.506-0.836c1.123-0.332,2.189-0.71,3.254-1.02
	c1.054-0.321,2.154-0.573,3.071-0.928c0.94-0.321,1.822-0.676,2.716-0.951c0.882-0.298,1.707-0.596,2.521-0.836
	c0.802-0.344,1.512-0.676,2.189-0.94C301.212,282.405,302.874,281.924,302.874,281.924z"/>
<g>
	<path style="fill:#4D4D4D;" d="M294.887,294.046c-0.115,0.115-0.241,0.229-0.367,0.344c-0.447,0.412-0.905,0.848-1.375,1.283
		c-0.94,0.882-1.959,1.753-3.025,2.67c-1.123,0.825-2.326,1.604-3.564,2.452c-0.619,0.424-1.26,0.836-1.914,1.249
		c-0.653,0.39-1.352,0.71-2.063,1.066c-1.398,0.71-2.853,1.398-4.354,2.085c-3.094,1.054-6.313,2.292-9.751,2.807
		c-3.392,0.791-6.932,0.917-10.461,1.089c-3.529-0.172-7.07-0.286-10.461-1.077c-3.437-0.516-6.657-1.753-9.751-2.807
		c-1.501-0.676-2.956-1.364-4.366-2.074c-0.699-0.355-1.398-0.676-2.062-1.066c-0.642-0.424-1.283-0.825-1.902-1.249
		c-1.237-0.848-2.452-1.639-3.575-2.452c-1.066-0.917-2.074-1.799-3.025-2.67c-0.47-0.447-0.917-0.871-1.364-1.295
		c-0.16-0.149-0.321-0.298-0.481-0.447c0.367,0.126,0.733,0.252,1.111,0.378c0.905,0.298,1.81,0.653,2.773,0.997
		c0.951,0.378,2.028,0.619,3.094,0.94c1.066,0.309,2.131,0.676,3.243,1.02c1.157,0.241,2.315,0.55,3.506,0.836
		c0.596,0.137,1.18,0.298,1.776,0.458c0.607,0.138,1.237,0.218,1.856,0.344c1.249,0.218,2.498,0.481,3.747,0.756
		c2.601,0.252,5.168,0.825,7.849,0.917c2.647,0.355,5.351,0.252,8.032,0.424c2.693-0.16,5.397-0.057,8.044-0.412
		c2.681-0.092,5.248-0.665,7.849-0.905c1.249-0.275,2.498-0.539,3.747-0.756c0.619-0.126,1.249-0.206,1.856-0.344
		c0.596-0.16,1.192-0.321,1.776-0.458c1.192-0.286,2.349-0.596,3.506-0.836c1.123-0.344,2.189-0.722,3.254-1.02
		c1.054-0.321,2.154-0.584,3.071-0.928c0.94-0.332,1.822-0.676,2.716-0.962C294.189,294.287,294.544,294.161,294.887,294.046z"/>
	<path style="fill:#4D4D4D;" d="M207.01,243.541c-4.746,0-8.594-3.848-8.594-8.594v-13.745c0-4.746,3.848-8.594,8.594-8.594
		s8.594,3.848,8.594,8.594v13.745C215.603,239.693,211.756,243.541,207.01,243.541z"/>
	<path style="fill:#4D4D4D;" d="M309.026,243.541c-4.746,0-8.594-3.848-8.594-8.594v-13.745c0-4.746,3.848-8.594,8.594-8.594
		c4.746,0,8.594,3.848,8.594,8.594v13.745C317.619,239.693,313.773,243.541,309.026,243.541z"/>
</g>
<g>
	<path style="fill:#E0B394;" d="M271.194,208.598v40.677c0,7.277-5.9,13.177-13.177,13.177l0,0c-7.277,0-13.177-5.9-13.177-13.177
		v-40.677"/>
	<circle style="fill:#E0B394;" cx="258.021" cy="322.194" r="6.302"/>
</g>
<g>
</g>
<g>
</g>
<g>
</g>
<g>
</g>
<g>
</g>
<g>
</g>
<g>
</g>
<g>
</g>
<g>
</g>
<g>
</g>
<g>
</g>
<g>
</g>
<g>
</g>
<g>
</g>
<g>
</g>
</svg>
