<svg id="Capa_1" enable-background="new 0 0 512 512" height="200" viewBox="0 0 512 512" width="200" xmlns="http://www.w3.org/2000/svg"><path d="m256 375h-15v60h15 15v-60z" fill="#fdbf00"/><path d="m256 375h15v60h-15z" fill="#ff9100"/><g fill="none"><path d="m219.366 231.636c-15.326 1.705-30.661-3.029-46.163-14.918-15.121 23.736-23.617 62.472-27.404 88.482 26.01-3.787 64.744-12.281 88.48-27.402-11.87-15.477-16.619-30.813-14.913-46.162z"/><path d="m173.2 173.276c15.476-11.871 30.811-16.617 46.166-14.91-1.707-15.35 3.043-30.688 14.914-46.165-23.736-15.12-62.47-23.615-88.48-27.401 3.786 26.01 12.279 64.74 27.4 88.476z"/><path d="m232.947 195.048c-12.739-8.963-24.388-9.697-38.447-.07 14.671 9.992 26.364 8.633 38.447.07z"/></g><path d="m398.236 68.906-16.143-16.143c-3.658.297-83.201 7-126.094 37.982-42.891-30.981-122.434-37.685-126.093-37.981l-16.143 16.143c.297 3.658 7 83.201 37.982 126.094-30.981 42.892-37.685 122.435-37.982 126.094l16.143 16.143c3.658-.297 83.201-7 126.094-37.982 42.892 30.981 122.435 37.685 126.094 37.982l16.143-16.143c-.297-3.658-7-83.201-37.982-126.094 30.981-42.893 37.685-122.436 37.981-126.095zm-32.036 15.894c-3.787 26.01-12.279 64.742-27.4 88.478-15.476-11.871-30.809-16.619-46.165-14.912 1.707-15.35-3.045-30.687-14.916-46.165 23.737-15.12 62.471-23.615 88.481-27.401zm-48.693 110.185c-14.669 10.001-26.365 8.639-38.458.062 12.715-8.95 24.368-9.715 38.458-.062zm-171.707 110.215c3.787-26.01 12.283-64.746 27.404-88.482 15.502 11.889 30.837 16.622 46.163 14.918-1.707 15.35 3.043 30.685 14.914 46.163-23.737 15.12-62.471 23.615-88.481 27.401zm48.7-110.222c14.059-9.628 25.708-8.893 38.447.07-12.083 8.563-23.776 9.922-38.447-.07zm24.866-36.612c-15.355-1.707-30.69 3.04-46.166 14.91-15.121-23.736-23.613-62.466-27.4-88.477 26.01 3.787 64.744 12.281 88.48 27.402-11.871 15.477-16.62 30.815-14.914 46.165zm36.634 98.095c-9.981-14.68-8.6-26.373 0-38.474 8.6 12.102 9.981 23.795 0 38.474zm0-84.448c-8.6-12.101-9.981-23.795 0-38.474 9.981 14.679 8.6 26.372 0 38.474zm110.2 133.187c-26.01-3.787-64.744-12.281-88.48-27.402 11.871-15.476 16.622-30.811 14.916-46.161 15.326 1.705 30.659-3.029 46.161-14.919 15.12 23.736 23.617 62.472 27.403 88.482z" fill="#76e2f8"/><path d="m398.236 321.094c-.297-3.658-7-83.201-37.982-126.094 30.981-42.892 37.685-122.435 37.982-126.094l-16.143-16.143c-3.658.297-83.201 7-126.094 37.982v42.794c9.981 14.68 8.6 26.373 0 38.474v45.974c8.6 12.101 9.981 23.795 0 38.474v42.794c42.892 30.981 122.435 37.685 126.094 37.982zm-32.036-236.294c-3.787 26.01-12.279 64.742-27.4 88.478-15.476-11.871-30.809-16.619-46.165-14.912 1.707-15.35-3.045-30.687-14.916-46.165 23.737-15.12 62.471-23.615 88.481-27.401zm-48.693 110.185c-14.669 10.001-26.365 8.639-38.458.062 12.715-8.95 24.368-9.715 38.458-.062zm-39.787 82.813c11.871-15.476 16.622-30.811 14.916-46.161 15.326 1.705 30.659-3.029 46.161-14.919 15.121 23.736 23.617 62.472 27.404 88.482-26.011-3.786-64.745-12.281-88.481-27.402z" fill="#4bb9ec"/><path d="m256 0c-107.695 0-195 87.305-195 195s87.305 195 195 195 195-87.305 195-195-87.305-195-195-195zm0 360c-90.981 0-165-74.019-165-165s74.019-165 165-165 165 74.019 165 165-74.019 165-165 165z" fill="#ff637b"/><path d="m451 195c0-107.695-87.305-195-195-195v30c90.981 0 165 74.019 165 165s-74.019 165-165 165v30c107.695 0 195-87.305 195-195z" fill="#e63950"/><path d="m436 210h-15v120l15 30 15-30v-120z" fill="#fff7cc"/><path d="m451 210h-15v150l15-30z" fill="#ffe6b3"/><path d="m451 330h-15-15c-12.398 12.036-30 40.243-30 87.422v5.156c0 30.908 12.539 56.961 34.395 78.816l10.605 10.606 10.605-10.605c21.856-21.856 34.395-47.909 34.395-78.817v-5.156c0-47.459-17.582-75.484-30-87.422z" fill="#54e360"/><path d="m481 422.578v-5.156c0-47.459-17.582-75.483-30-87.422h-15v182l10.605-10.605c21.856-21.856 34.395-47.909 34.395-78.817z" fill="#00cc71"/><circle cx="436" cy="195" fill="#ffda2d" r="45"/><path d="m481 195c0-24.814-20.186-45-45-45v90c24.814 0 45-20.186 45-45z" fill="#fdbf00"/><path d="m76 210h-15v120l15 30 15-30v-120z" fill="#fff7cc"/><path d="m91 210h-15v150l15-30z" fill="#ffe6b3"/><path d="m91 330h-15-15c-12.398 12.036-30 40.243-30 87.422v5.156c0 30.908 12.539 56.961 34.395 78.816l10.605 10.606 10.605-10.605c21.856-21.856 34.395-47.909 34.395-78.817v-5.156c0-47.459-17.582-75.484-30-87.422z" fill="#54e360"/><path d="m121 422.578v-5.156c0-47.459-17.582-75.483-30-87.422h-15v182l10.605-10.605c21.856-21.856 34.395-47.909 34.395-78.817z" fill="#00cc71"/><circle cx="76" cy="195" fill="#ffda2d" r="45"/><path d="m121 195c0-24.814-20.186-45-45-45v90c24.814 0 45-20.186 45-45z" fill="#fdbf00"/><path d="m256 420c-24.814 0-45 22.186-45 47v45h45 45v-45c0-24.814-20.186-47-45-47z" fill="#ffda2d"/><path d="m301 467c0-24.814-20.186-47-45-47v92h45z" fill="#fdbf00"/></svg>