<?xml version="1.0" encoding="iso-8859-1"?>
<!-- Generator: Adobe Illustrator 19.0.0, SVG Export Plug-In . SVG Version: 6.00 Build 0)  -->
<svg version="1.1" id="Capa_1" width="200" height="200" xmlns="http://www.w3.org/2000/svg" xmlns:xlink="http://www.w3.org/1999/xlink" x="0px" y="0px"
	 viewBox="0 0 512.001 512.001" style="enable-background:new 0 0 512.001 512.001;" xml:space="preserve">
<path style="fill:#F2F2F2;" d="M167.724,150.07V17.656c-0.124-9.631,7.583-17.532,17.214-17.655h309.848
	c9.631,0.124,17.337,8.024,17.214,17.655v238.345c0.124,9.631-7.583,17.532-17.214,17.655l-309.469-1.121
	c-9.728-0.035-17.593-7.927-17.593-17.655V150.07z"/>
<g>
	<path style="fill:#06AAE9;" d="M512,35.311H167.724V17.656c0-9.754,7.901-17.655,17.655-17.655h308.966
		c9.754,0,17.655,7.901,17.655,17.655V35.311z"/>
	<path style="fill:#06AAE9;" d="M476.69,247.173c-4.873,0-8.828-3.955-8.828-8.828V112.552c0-4.873,3.955-8.828,8.828-8.828
		c4.873,0,8.828,3.955,8.828,8.828v125.793C485.517,243.218,481.562,247.173,476.69,247.173z"/>
	<path style="fill:#06AAE9;" d="M441.379,247.173c-4.873,0-8.828-3.955-8.828-8.828v-70.621c0-4.873,3.955-8.828,8.828-8.828
		s8.828,3.955,8.828,8.828v70.621C450.207,243.218,446.252,247.173,441.379,247.173z"/>
	<path style="fill:#06AAE9;" d="M406.069,247.173c-4.873,0-8.828-3.955-8.828-8.828V150.07c0-4.873,3.955-8.828,8.828-8.828
		s8.828,3.955,8.828,8.828v88.276C414.897,243.218,410.942,247.173,406.069,247.173z"/>
</g>
<g>
	<path style="fill:#ED1C24;" d="M370.759,247.173c-4.873,0-8.828-3.955-8.828-8.828v-35.31c0-4.873,3.955-8.828,8.828-8.828
		c4.873,0,8.828,3.955,8.828,8.828v35.31C379.586,243.218,375.631,247.173,370.759,247.173z"/>
	<path style="fill:#ED1C24;" d="M335.448,203.035c-4.873,0-8.828-3.955-8.828-8.828c0-2.781,1.306-5.394,3.531-7.062l33.642-25.229
		l34.375-68.758c2.163-4.37,7.459-6.153,11.829-3.99c0.494,0.247,0.971,0.538,1.412,0.874l27.842,20.877l30.137-45.197
		c2.71-4.061,8.183-5.155,12.244-2.445c4.052,2.71,5.155,8.183,2.445,12.244l-35.31,52.966c-2.692,4.061-8.174,5.173-12.235,2.481
		c-0.15-0.106-0.3-0.212-0.45-0.318l-26.854-20.136l-30.526,61.158c-0.627,1.227-1.536,2.295-2.648,3.116l-35.31,26.483
		C339.218,202.417,337.355,203.035,335.448,203.035L335.448,203.035z"/>
</g>
<path d="M308.966,79.449H203.034c-4.873,0-8.828-3.955-8.828-8.828s3.955-8.828,8.828-8.828h105.931
	c4.873,0,8.828,3.955,8.828,8.828S313.838,79.449,308.966,79.449z"/>
<path d="M361.931,79.449h-17.655c-4.873,0-8.828-3.955-8.828-8.828s3.955-8.828,8.828-8.828h17.655c4.873,0,8.828,3.955,8.828,8.828
	S366.804,79.449,361.931,79.449z"/>
<path style="fill:#E6E6E6;" d="M167.539,194.393l-29.952,29.952c-3.31,3.31-7.804,5.173-12.482,5.173H35.31
	c-19.5,0-35.31,15.81-35.31,35.31v44.226h35.31v114.67h105.931v-143.13c0-4.458,1.686-8.757,4.723-12.023l46.142-49.646
	L167.539,194.393z"/>
<g>
	<path style="fill:#ECC19C;" d="M0,309.055v79.36c0,9.754,7.901,17.655,17.655,17.655s17.655-7.901,17.655-17.655v-79.36L0,309.055z
		"/>
	<path style="fill:#ECC19C;" d="M258.207,147.863c5.994-6.197,5.835-16.075-0.362-22.069c-6.056-5.862-15.66-5.862-21.707,0
		l-68.414,68.414l-0.185,0.185l24.567,24.532l0.371-0.397L258.207,147.863z"/>
</g>
<path style="fill:#333333;" d="M432.878,414.897h-0.653c-22.484,0.424-41.322-16.922-42.743-39.371l-1.068-23.764
	c-0.512-23.119,17.814-42.284,40.942-42.796c0.609-0.018,1.227-0.018,1.836,0h2.719c23.119-0.503,42.275,17.832,42.779,40.96
	c0.018,0.609,0.009,1.227,0,1.836l-1.033,23.764C474.236,397.984,455.38,415.339,432.878,414.897z"/>
<path style="fill:#0378A3;" d="M88.276,370.759c-4.873,0-8.828-3.955-8.828-8.828V256.001c0-4.873,3.955-8.828,8.828-8.828
	c4.873,0,8.828,3.955,8.828,8.828v105.931C97.103,366.805,93.149,370.759,88.276,370.759z"/>
<path style="fill:#333333;" d="M238.671,414.897h-0.653c-22.484,0.424-41.322-16.922-42.743-39.371l-1.068-23.764
	c-0.512-23.119,17.814-42.284,40.942-42.796c0.609-0.018,1.227-0.018,1.836,0h2.719c23.119-0.503,42.275,17.832,42.778,40.96
	c0.018,0.609,0.009,1.227,0,1.836l-1.033,23.764C280.029,397.984,261.173,415.339,238.671,414.897L238.671,414.897z"/>
<path style="fill:#29ABE2;" d="M317.793,512.001v-36.785c0-18.688-15.148-33.836-33.836-33.836h-91.224
	c-18.688,0-33.836,15.148-33.836,33.836v36.785"/>
<path style="fill:#39B54A;" d="M512,512.001v-36.785c0-18.688-15.148-33.836-33.836-33.836H386.94
	c-18.688,0-33.836,15.148-33.836,33.836v36.785"/>
<path style="fill:#333333;" d="M102.691,131.532c2.648,14.001,14.601,24.329,28.84,24.911h0.521l0.362-7.715
	c0.512-23.119-17.814-42.284-40.942-42.796c-0.609-0.018-1.227-0.018-1.836,0h-2.719c-23.119-0.503-42.275,17.832-42.778,40.96
	c-0.018,0.609-0.009,1.227,0,1.836l0.335,7.715h0.547C88.276,156.443,102.691,131.532,102.691,131.532z"/>
<path style="fill:#ECC19C;" d="M131.531,156.443c-14.239-0.583-26.191-10.911-28.84-24.911c0,0-14.415,24.911-57.671,24.911h-0.512
	l0.697,16.049c1.421,22.449,20.259,39.795,42.743,39.371h0.653c22.484,0.424,41.322-16.922,42.743-39.371l0.697-16.049H131.531z"/>
<g>
</g>
<g>
</g>
<g>
</g>
<g>
</g>
<g>
</g>
<g>
</g>
<g>
</g>
<g>
</g>
<g>
</g>
<g>
</g>
<g>
</g>
<g>
</g>
<g>
</g>
<g>
</g>
<g>
</g>
</svg>
