<svg height="200" viewBox="0 0 64 64" width="200" xmlns="http://www.w3.org/2000/svg"><g id="Flat"><g id="Colors_copy" data-name="Colors copy"><g><rect fill="#57b7eb" height="44" rx="4" width="26" x="3" y="3"/><path d="m22 42a14 14 0 0 1 -14-14v-25h-1a4 4 0 0 0 -4 4v36a4 4 0 0 0 4 4h18a4 4 0 0 0 4-4v-1z" fill="#4891d3"/><path d="m49 28h8a4 4 0 0 1 4 4v10a0 0 0 0 1 0 0h-16a0 0 0 0 1 0 0v-10a4 4 0 0 1 4-4z" fill="#57b7eb"/><g fill="#d0d8da"><path d="m47 42h4a0 0 0 0 1 0 0v4a2 2 0 0 1 -2 2 2 2 0 0 1 -2-2v-4a0 0 0 0 1 0 0z"/><path d="m55 42h4a0 0 0 0 1 0 0v4a2 2 0 0 1 -2 2 2 2 0 0 1 -2-2v-4a0 0 0 0 1 0 0z"/><circle cx="16" cy="15" r="8"/><circle cx="16" cy="35" r="8"/></g><path d="m10 47h12v4h-12z" fill="#f9e109"/><path d="m35 61h-17a4 4 0 0 1 -4-4v-6h4v6h17v-45a4 4 0 0 1 4-4h12a4 4 0 0 1 4 4v12h-4v-12h-12v45a4 4 0 0 1 -4 4z" fill="#93999a"/><path d="m49 24h8v4h-8z" fill="#f9e109"/><path d="m55 39a7 7 0 0 1 -7-7v-3.859a3.991 3.991 0 0 0 -3 3.859v10h16v-3z" fill="#4891d3"/><path d="m51 24h-2v4h8v-2h-4a2 2 0 0 1 -2-2z" fill="#fcbc04"/><path d="m51 8h-11a2 2 0 0 0 2 2h9a2 2 0 0 1 2 2v8a2 2 0 0 0 2 2v-10a4 4 0 0 0 -4-4z" fill="#d0d8da"/><path d="m39 15a0 0 0 0 1 0 0v38a0 0 0 0 1 0 0 2 2 0 0 1 -2-2v-34a2 2 0 0 1 2-2z" fill="#d0d8da"/><path d="m21 57h10a0 0 0 0 1 0 0 2 2 0 0 1 -2 2h-6a2 2 0 0 1 -2-2 0 0 0 0 1 0 0z" fill="#d0d8da"/><path d="m55 42v4a2 2 0 0 0 2 2v-2a2 2 0 0 1 2-2v-2z" fill="#93999a"/><path d="m47 42v4a2 2 0 0 0 2 2v-2a2 2 0 0 1 2-2v-2z" fill="#93999a"/><path d="m16 43a7.947 7.947 0 0 0 4.105-1.143 14 14 0 0 1 -11.518-9.857 7.994 7.994 0 0 0 7.413 11z" fill="#93999a"/><path d="m10 47v4h2a2 2 0 0 1 2-2h8v-2z" fill="#fcbc04"/><path d="m22 17a7.96 7.96 0 0 1 -1.435 4.565 8 8 0 1 0 -11.13-11.13 7.995 7.995 0 0 1 12.565 6.565z" fill="#93999a"/><path d="m16 27a7.985 7.985 0 0 0 -6.565 3.435 7.995 7.995 0 0 1 11.13 11.13 8 8 0 0 0 -4.565-14.565z" fill="#93999a"/><g><g fill="#656b76"><path d="m19 18a1 1 0 0 1 -1-1v-4a1 1 0 0 1 2 0v4a1 1 0 0 1 -1 1z"/><path d="m13 18a1 1 0 0 1 -1-1v-4a1 1 0 0 1 2 0v4a1 1 0 0 1 -1 1z"/><path d="m19 38a1 1 0 0 1 -1-1v-4a1 1 0 0 1 2 0v4a1 1 0 0 1 -1 1z"/><path d="m13 38a1 1 0 0 1 -1-1v-4a1 1 0 0 1 2 0v4a1 1 0 0 1 -1 1z"/></g><circle cx="25" cy="7" fill="#d0d8da" r="1"/><circle cx="7" cy="7" fill="#93999a" r="1"/><circle cx="25" cy="43" fill="#93999a" r="1"/><circle cx="7" cy="43" fill="#93999a" r="1"/><circle cx="25" cy="25" fill="#d0d8da" r="1"/><circle cx="7" cy="25" fill="#93999a" r="1"/><path d="m53 39a1 1 0 0 1 -.831-1.555l.963-1.445h-2.132a1 1 0 0 1 -.832-1.555l2-3a1 1 0 1 1 1.664 1.11l-.964 1.445h2.132a1 1 0 0 1 .832 1.555l-2 3a1 1 0 0 1 -.832.445z" fill="#f9e109"/><circle cx="57" cy="38" fill="#d0d8da" r="1"/><circle cx="49" cy="38" fill="#93999a" r="1"/></g></g></g></g></svg>