<svg height="200" viewBox="0 0 59 58" width="200" xmlns="http://www.w3.org/2000/svg"><g id="Page-1" fill="none" fill-rule="evenodd"><g id="003---Ironing" fill-rule="nonzero"><path id="Shape" d="m38.19 5.55-8.19-5.55h-16l-12.57 8.51c-.41223485.28166973-.54954561.82662181-.32 1.27l4.16 8.33c.24957563.490313.84834645.6869243 1.34.44l3.39-1.55v20c.0032948 1.1032019.8967981 1.9967052 2 2h19z" fill="#f3d55b"/><path id="Shape" d="m32 54h-6c-2.7600532-.0033061-4.9966939-2.2399468-5-5 0-1.6568542-1.3431458-3-3-3h-5c-1.6568542 0-3 1.3431458-3 3-.00330612 2.7600532-2.23994685 4.9966939-5 5h-4c-.55228475 0-1-.4477153-1-1s.44771525-1 1-1h4c1.65685425 0 3-1.3431458 3-3 .00330612-2.7600532 2.2399468-4.9966939 5-5h5c2.7600532.0033061 4.9966939 2.2399468 5 5 0 1.6568542 1.3431458 3 3 3h6c.5522847 0 1 .4477153 1 1s-.4477153 1-1 1z" fill="#9bc8c2"/><path id="Shape" d="m58 44.11v9.89c0 2.209139-1.790861 4-4 4h-18c-2.209139 0-4-1.790861-4-4v-9.89z" fill="#3b97d3"/><path id="Shape" d="m38.19 5.55c-2.1410921 3.50754763-3.7803495 7.2976992-4.87 11.26-1.5212915 5.2627713-2.302127 10.7117913-2.32 16.19v6h-9v-25l11.14-6.5c.4761364-.27460848.6413883-.88202082.37-1.36l-3.51-6.14z" fill="#f0c419"/><path id="Shape" d="m30 0-8 14-8-14z" fill="#f29c1f"/><path id="Shape" d="m22 14-11.14-6.5c-.4761364-.27460848-.6413883-.88202082-.37-1.36l3.51-6.14z" fill="#f5efca"/><path id="Shape" d="m33.14 7.5-11.14 6.5 8-14 3.51 6.14c.2713883.47797918.1061364 1.08539152-.37 1.36z" fill="#f9eab0"/><path id="Shape" d="m59 33v7c.0024315 1.4305305-.340625 2.8404929-1 4.11-1.5380492 3.0018112-4.6270983 4.8899925-8 4.89h-10c-3.3729017-.0000075-6.4619508-1.8881888-8-4.89-.659375-1.2695071-1.0024315-2.6794695-1-4.11v-7c.017873-5.4782087.7987085-10.9272287 2.32-16.19 1.0896505-3.9623008 2.7289079-7.75245237 4.87-11.26 2.22-3.46 4.64-5.55 6.81-5.55 6 0 14 16 14 33z" fill="#d1d4d1"/><g fill="#7f8284"><path id="Shape" d="m45 9c-.5522847 0-1-.44771525-1-1v-3c0-.55228475.4477153-1 1-1s1 .44771525 1 1v3c0 .55228475-.4477153 1-1 1z"/><path id="Shape" d="m43 14c-.2651948-.0000566-.5195073-.1054506-.707-.293l-3-3c-.3789722-.3923789-.3735524-1.01608478.0121814-1.40181858.3857338-.38573379 1.0094397-.39115363 1.4018186-.01218142l3 3c.2859079.2859943.3714219.7160366.216678 1.0896546-.1547439.3736179-.5192821.6172591-.923678.6173454z"/><path id="Shape" d="m47 14c-.4043959-.0000863-.7689341-.2437275-.923678-.6173454-.1547439-.373618-.0692299-.8036603.216678-1.0896546l3-3c.3923789-.37897221 1.0160848-.37355237 1.4018186.01218142.3857338.3857338.3911536 1.00943968.0121814 1.40181858l-3 3c-.1874927.1875494-.4418052.2929434-.707.293z"/><path id="Shape" d="m42 20c-.1547895-.0000102-.3074634-.0359537-.446-.105l-4-2c-.4942948-.2468713-.6948712-.8477051-.448-1.342.2468713-.4942948.8477052-.6948713 1.342-.448l4 2c.415621.2071424.6339515.6731489.5271118 1.1250715-.1068398.4519227-.5107327.7708283-.9751118.7699285z"/><path id="Shape" d="m48 20c-.4643791.0008998-.868272-.3180058-.9751118-.7699285-.1068397-.4519226.1114908-.9179291.5271118-1.1250715l4-2c.3197527-.1596977.7004141-.1366785.9985928.0603866.2981786.1970651.4685741.5382372.447.895-.0215741.3567629-.2318401.6749157-.5515928.8346134l-4 2c-.1385366.0690463-.2912105.1049898-.446.105z"/><path id="Shape" d="m41 26c-.1273562-.0001189-.2535525-.0242047-.372-.071l-5-2c-.5130725-.2054499-.7624499-.7879275-.557-1.301.20545-.5130725.7879275-.7624499 1.301-.557l5 2c.4459179.1776349.702724.6470461.6118332 1.118359-.0908908.4713128-.5038373.811565-.9838332.810641z"/><path id="Shape" d="m49 26c-.4799959.000924-.8929424-.3393282-.9838332-.810641-.0908908-.4713129.1659153-.9407241.6118332-1.118359l5-2c.3318997-.1329028.7094905-.0786437.9905376.1423385s.4228527.575115.372.929c-.0508526.3538851-.2866379.6537587-.6185376.7866615l-5 2c-.1184475.0467953-.2446438.0708811-.372.071z"/><path id="Shape" d="m41 31h-6c-.5522847 0-1-.4477153-1-1s.4477153-1 1-1h6c.5522847 0 1 .4477153 1 1s-.4477153 1-1 1z"/><path id="Shape" d="m55 31h-6c-.5522847 0-1-.4477153-1-1s.4477153-1 1-1h6c.5522847 0 1 .4477153 1 1s-.4477153 1-1 1z"/><circle id="Oval" cx="45" cy="34" r="1"/><circle id="Oval" cx="42" cy="38" r="1"/><circle id="Oval" cx="39" cy="42" r="1"/><circle id="Oval" cx="45" cy="42" r="1"/><circle id="Oval" cx="51" cy="42" r="1"/><circle id="Oval" cx="48" cy="38" r="1"/></g></g></g></svg>