<svg height="200pt" viewBox="-60 1 511 511.999" width="200pt" xmlns="http://www.w3.org/2000/svg"><path d="m77.566406 314.121094v-6.898438h-54.332031v6.898438c0 10.550781-2.507813 20.949218-7.316406 30.339844-4.808594 9.390624-7.320313 19.792968-7.320313 30.34375v111.976562c0 13.929688 11.292969 25.214844 25.21875 25.214844h33.167969c13.925781 0 25.214844-11.289063 25.214844-25.214844v-111.976562c0-10.550782-2.507813-20.949219-7.316407-30.339844-4.808593-9.394532-7.316406-19.792969-7.316406-30.34375zm0 0" fill="#ff4755"/><path d="m84.882812 344.464844c-4.808593-9.394532-7.316406-19.792969-7.316406-30.34375v-6.898438h-30.988281v6.898438c0 10.550781 2.507813 20.949218 7.316406 30.34375 4.808594 9.390625 7.316407 19.789062 7.316407 30.339844v111.976562c0 13.929688-11.289063 25.21875-25.214844 25.21875h-2.179688 33.171875c13.925781 0 25.214844-11.289062 25.214844-25.21875v-111.976562c0-10.550782-2.507813-20.949219-7.320313-30.339844zm0 0" fill="#e61f2d"/><path d="m80.308594 66.21875-12.65625-61.5625c-.558594-2.710938-2.945313-4.65625-5.710938-4.65625h-23.082031c-2.765625 0-5.152344 1.945312-5.710937 4.65625l-12.65625 61.5625 11.175781 31.429688h-.003907v214.292968h37.472657v-214.292968h-.003907zm0 0" fill="#deecf1"/><path d="m67.652344 4.65625c-.558594-2.710938-2.945313-4.65625-5.710938-4.65625h-23.082031c-2.765625 0-5.152344 1.945312-5.710937 4.65625l-12.65625 61.5625 11.175781 31.429688h37.464843l11.175782-31.429688zm0 0" fill="#8ebac5"/><path d="m89.691406 313.597656h-78.578125c-5.863281 0-10.613281-4.75-10.613281-10.613281v-8.261719c0-5.859375 4.75-10.613281 10.613281-10.613281h78.578125c5.859375 0 10.609375 4.753906 10.609375 10.613281v8.261719c0 5.863281-4.75 10.613281-10.609375 10.613281zm0 0" fill="#ca9d56"/><path d="m50.402344 482.253906c-4.269532 0-7.726563-3.460937-7.726563-7.726562v-93.125c0-4.265625 3.457031-7.726563 7.726563-7.726563 4.265625 0 7.722656 3.460938 7.722656 7.726563v93.125c.003906 4.265625-3.457031 7.726562-7.722656 7.726562zm0 0" fill="#ff8088"/><path d="m347.496094 325.878906v-139.757812c0-25.285156 9.167968-49.777344 26.019531-68.628906 11.476563-12.839844 18.457031-29.789063 18.457031-48.363282 0-27.976562-15.824218-52.257812-39.007812-64.378906-3.242188-1.695312-7.128906.640625-7.128906 4.300781v53.5c0 6.96875-5.648438 12.617188-12.617188 12.617188h-27.703125c-6.96875 0-12.617187-5.648438-12.617187-12.617188v-53.5c0-3.660156-3.886719-5.996093-7.128907-4.300781-23.183593 12.121094-39.007812 36.402344-39.007812 64.378906 0 18.574219 6.980469 35.523438 18.457031 48.363282 16.851562 18.851562 26.019531 43.34375 26.019531 68.628906v139.757812c0 25.285156-9.167969 49.777344-26.019531 68.628906-11.476562 12.839844-18.457031 29.789063-18.457031 48.363282 0 27.976562 15.824219 52.257812 39.007812 64.378906 3.242188 1.695312 7.128907-.640625 7.128907-4.300781v-53.5c0-6.96875 5.648437-12.617188 12.617187-12.617188h27.703125c6.96875 0 12.617188 5.648438 12.617188 12.617188v53.5c0 3.660156 3.886718 5.996093 7.128906 4.300781 23.183594-12.121094 39.007812-36.402344 39.007812-64.378906 0-18.574219-6.980468-35.523438-18.457031-48.363282-16.851563-18.851562-26.019531-43.34375-26.019531-68.628906zm0 0" fill="#ff9838"/><path d="m347.496094 325.878906v-139.757812c0-25.285156 9.167968-49.777344 26.019531-68.628906 11.476563-12.839844 18.457031-29.789063 18.457031-48.363282 0-27.976562-15.824218-52.257812-39.007812-64.378906-3.242188-1.695312-7.128906.640625-7.128906 4.300781v15.910157c9.390624 12.238281 14.976562 27.550781 14.976562 44.167968 0 18.574219-6.980469 35.523438-18.457031 48.363282-16.851563 18.851562-26.019531 43.34375-26.019531 68.628906v139.757812c0 25.285156 9.167968 49.777344 26.019531 68.628906 11.476562 12.839844 18.457031 29.789063 18.457031 48.363282 0 16.617187-5.585938 31.929687-14.976562 44.167968v15.910157c0 3.660156 3.886718 5.996093 7.128906 4.300781 23.183594-12.121094 39.007812-36.402344 39.007812-64.378906 0-18.574219-6.980468-35.523438-18.457031-48.363282-16.851563-18.851562-26.019531-43.34375-26.019531-68.628906zm0 0" fill="#ff8709"/><path d="m319.367188 389.277344c-4.269532 0-7.726563-3.457032-7.726563-7.722656v-251.105469c0-4.269531 3.457031-7.726563 7.726563-7.726563 4.265624 0 7.726562 3.457032 7.726562 7.726563v251.105469c0 4.265624-3.460938 7.722656-7.726562 7.722656zm0 0" fill="#ffcb9d"/></svg>