<svg height="200" viewBox="0 0 64 64" width="200" xmlns="http://www.w3.org/2000/svg"><g fill="#9bc9ff"><path d="m53 13v-4-1h-4v6h4z"/><path d="m30 61h10v-18h-3-4-3z"/><path d="m15 43a4 4 0 0 0 4-4v-30a2.015 2.015 0 0 1 2-2 2.006 2.006 0 0 1 2 2v12a4 4 0 0 0 8 0v-18h-20v36a3.995 3.995 0 0 0 4 4z"/><path d="m3 8h4v6h-4z"/></g><path d="m61 8h-7a1 1 0 0 0 -1-1h-3v-2a3 3 0 0 0 -3-3h-38a3 3 0 0 0 -3 3v2h-3a1 1 0 0 0 -1 1v6a1 1 0 0 0 1 1h3v2a3 3 0 0 0 3 3h1v19a5 5 0 0 0 10 0v-19h2v1a5 5 0 0 0 10 0v-1h15a3 3 0 0 0 3-3v-2h3a1 1 0 0 0 1-1h2v7.724l-23.336 8.334a1 1 0 0 0 -.664.942v11h-2a1 1 0 0 0 -1 1v18a1 1 0 0 0 1 1h10a1 1 0 0 0 1-1v-18a1 1 0 0 0 -1-1h-2v-7.724l23.336-8.334a1 1 0 0 0 .664-.942v-16a1 1 0 0 0 -1-1zm-57 5v-4h2v4zm5 5a1 1 0 0 1 -1-1v-12a1 1 0 0 1 1-1h1v14zm11 0v-9a1 1 0 0 1 2 0v9zm7 6a3 3 0 0 1 -3-3v-12a3 3 0 0 0 -6 0v30a3 3 0 0 1 -6 0v-35h18v17a3 3 0 0 1 -3 3zm21-7a1 1 0 0 1 -1 1h-15v-14h15a1 1 0 0 1 1 1zm4-4h-2v-4h2zm-13 47h-8v-16h8zm21-35.7-23.336 8.329a1 1 0 0 0 -.664.942v8.429h-2v-10.3l23.336-8.334a1 1 0 0 0 .664-.937v-9.429a1 1 0 0 0 -1-1h-3v-2h6z" fill="#57a4ff"/></svg>